<svg version="1.1" id="svg2" xmlns:svg="http://www.w3.org/2000/svg" xmlns:rdf="http://www.w3.org/1999/02/22-rdf-syntax-ns#" xmlns:cc="http://creativecommons.org/ns#" xmlns:dc="http://purl.org/dc/elements/1.1/" xmlns="http://www.w3.org/2000/svg" xmlns:xlink="http://www.w3.org/1999/xlink" x="0px" y="0px" viewBox="345 -24.5 802.5 159.4" style="enable-background:new 345 -24.5 802.5 159.4;" xml:space="preserve">
 <style type="text/css">
  .st0{fill:#FFFFFF;}
 </style>
 <g id="g10" transform="matrix(1.3333333,0,0,-1.3333333,0,153.6)">
  <g id="g12" transform="scale(0.1)">
   <g id="path14">
    <path class="st0" d="M3105.2,140.4l-517.7,298.8v597.6l517.7,298.8l517.8-298.8V439.2L3105.2,140.4z M2625,460.8l480.2-277.2
				l480.3,277.2v554.3l-480.3,277.2L2625,1015.2V460.8z">
    </path>
   </g>
   <path id="path16" class="st0" d="M4164.3,471c-132,0-229,103-229,230s98,233,230,233c84,0,136-31,177-76l-63-68
			c-31,33-64,55-115,55c-74,0-128-64-128-142c0-80,55-144,133-144c48,0,83,23,115,55l61-61C4301.3,506,4250.3,471,4164.3,471">
   </path>
   <path id="path18" class="st0" d="M4538.3,471h-102v462h102V825c28,66,79,112,157,108V825h-6c-89,0-151-58-151-176V471L4538.3,471">
   </path>
   <path id="path20" class="st0" d="M5228.3,935l-225-588h-103l49,124l-193,464h109l131-343l126,343H5228.3">
   </path>
   <path id="path22" class="st0" d="M5551.3,472c-73,0-119,37-150,78V347h-102v588h102v-83c33,46,79,83,150,83c105,0,207-83,207-231
			S5657.3,472,5551.3,472 M5528.3,846c-69,0-129-56-129-143s61-143,129-143c70,0,127,55,127,143S5597.3,846,5528.3,846">
   </path>
   <path id="path24" class="st0" d="M5981.3,838V620c0-39,20-55,55-55h40v-91h-70c-74,0-127,33-127,130v234h-56v87h56v122h102V925h95
			v-87H5981.3L5981.3,838">
   </path>
   <path id="path26" class="st0" d="M6397.3,471c-135,0-235,103-235,230c0,128,101,233,237,233s236-103,236-231
			C6635.3,577,6535.3,471,6397.3,471 M6397.3,846c-82,0-134-64-134-142c0-79,56-144,135-144c82,0,134,64,134,142
			C6534.3,781,6477.3,846,6397.3,846">
   </path>
   <path id="path28" class="st0" d="M7608.3,471c-135,0-235,103-235,230c0,128,101,233,237,233s236-103,236-231
			C7846.3,577,7745.3,471,7608.3,471 M7608.3,846c-82,0-134-64-134-142c0-79,56-144,135-144c82,0,134,64,134,142
			C7744.3,781,7688.3,846,7608.3,846">
   </path>
   <path id="path30" class="st0" d="M8450.3,935c97,0,156-61,156-170V472h-102v262c0,71-33,108-90,108c-55,0-95-39-95-110V471h-102
			v263c0,69-34,108-90,108s-95-42-95-111V471h-102v463h102v-76c29,39,67,76,135,76c64,0,108-31,132-78
			C8336.3,904,8383.3,935,8450.3,935">
   </path>
   <path id="path32" class="st0" d="M6822.3,565v-52l-3-5l-45-25h-6l-44,25l-3,5v52l3,5l44,25h6l45-25L6822.3,565">
   </path>
   <path id="path34" class="st0" d="M7131.3,472c-132,3-227,108-225,235s102,231,235,228c84-2,136-34,176-80l-64-67
			c-30,33-63,57-114,58c-74,1-129-61-130-140c-2-80,52-145,130-146c48-1,84,21,116,53l60-62C7270.3,504,7218.3,470,7131.3,472">
   </path>
  </g>
  <polygon class="st0" points="330.2,38.7 323.1,38.7 314.6,46.5 314.6,50.5 323.4,58.9 323.4,72.2 334.9,79.7 348,69.8 	">
  </polygon>
  <polygon class="st0" points="310.4,59.7 300.8,59.7 302.1,72.2 297.8,83.4 323.2,83.4 319,72.2 320.2,59.7 	">
  </polygon>
  <polygon class="st0" points="306.6,46.5 298.1,38.6 290.9,38.6 273,69.8 286.2,79.6 297.8,72.2 297.8,58.9 306.6,50.5 	">
  </polygon>
  <polygon class="st0" points="290.8,106.5 330.1,106.5 334.8,86.5 286.2,86.5 	">
  </polygon>
 </g>
</svg>