<?xml version="1.0" encoding="UTF-8"?>
<svg id="Layer_1" xmlns="http://www.w3.org/2000/svg" version="1.1" viewBox="0 0 697 109">
  <!-- Generator: Adobe Illustrator 29.8.1, SVG Export Plug-In . SVG Version: 2.1.1 Build 2)  -->
  <defs>
    <style>
      .st0 {
        fill: #fff;
      }

      .st1 {
        fill: #0000fd;
      }
    </style>
  </defs>
  <path class="st0" d="M122.96,31.92c.16-.03.32-.06.49-.07,2.98,0,6.39-.88,8.82.26,2.43,1.14,3.7,4.24,5.43,6.54,3.01,4,5.95,8.04,9.08,12.27,4.07-5.5,8.11-10.69,11.81-16.1,1.62-2.35,3.35-3.41,6.21-3.05,1.89.12,3.8.12,5.69,0v44.42h-8.2v-31.38l-.49-.18c-.66.83-1.32,1.66-1.97,2.5-3.76,4.94-7.51,9.89-11.27,14.83-1.62,2.11-2.28,2.12-3.84,0-4.33-5.8-8.65-11.62-13.3-17.87v32.02h-8.46V31.92Z"/>
  <path class="st0" d="M219.33,31.53h19.89c2.03-.04,4.05.1,6.05.42,12.05,2.29,14.55,14.24,10.42,21.98-1.67,3.1-3.45,4.29-9.47,6.62l6.88,7.67,7.14,7.94c-3.86,0-7.17.06-10.47-.06-.5,0-1.01-.81-1.46-1.29-3.6-3.97-7.23-7.92-10.75-11.97-.88-1.2-2.35-1.84-3.85-1.68-1.89.13-3.79,0-5.86,0v14.84h-8.52V31.53ZM227.76,53.65c4.9,0,9.55.17,14.21,0,1.95,0,3.81-.78,5.15-2.17,1.34-1.39,2.02-3.27,1.9-5.18-.15-3.98-3.26-6.79-7.58-6.85h-13.63l-.05,14.2Z"/>
  <path class="st0" d="M564.2,75.92h-8.28V31.55c2.04,0,4.17-.1,6.27.06.56.05,1.12.84,1.57,1.39,6.47,8.06,12.93,16.12,19.39,24.2.36.44.76.86,1.43,1.62v-27.1h8.29v43.95c-3.49,1.02-4.87.59-7.07-2.19l-19.92-25.22c-.45-.56-.94-1.09-1.71-2.03l.03,29.69Z"/>
  <path class="st0" d="M179.72,76.17V31.52h32.98v7.96h-24.71v10.2h23.84v7.8h-23.86v10.42h24.75v8.26h-33Z"/>
  <path class="st0" d="M376.4,31.52v7.92h-24.82v10.3h23.95v7.82h-23.95v10.36h24.73v8.26h-32.91V31.52h33Z"/>
  <path class="st0" d="M546.68,31.52v7.92h-24.82v10.3h23.95v7.82h-23.95v10.35h24.74v8.27h-32.92V31.52h33Z"/>
  <path class="st0" d="M655.11,39.38v10.25h23.88v7.9h-23.87v10.37h24.77v8.27h-32.9V31.52h33v7.86h-24.89Z"/>
  <path class="st0" d="M443.93,39.06l-6.94,3.63c-4.04-4.49-8.96-5.88-14.63-4.59-1.15.26-2.25.73-3.24,1.39-3.41,2.31-3.08,6.89.79,8.32,2.95,1.09,6.2,1.35,9.3,2.07,2.62.5,5.21,1.17,7.74,2.02,4.62,1.48,7.82,5.72,8.01,10.6.45,5.73-1.35,10.55-6.55,13.21-8.03,4.07-16.33,4.05-24.5.29-3.49-1.65-6.1-4.75-7.16-8.49.2-.19.42-.37.65-.52,1.97-1.05,3.93-2.08,5.99-3.16,3.84,6.68,9.8,7.97,16.69,6.76,1.24-.23,2.43-.68,3.52-1.32,4.14-2.42,4.18-7.92-.18-9.84-3.05-1.35-6.55-1.58-9.87-2.44-3-.78-6.15-1.35-8.88-2.73-7.49-3.77-8.42-14.74-1.82-20.03,6.61-5.29,20.13-5.44,26.79,0,1.55,1.5,2.98,3.12,4.3,4.83Z"/>
  <path class="st0" d="M262.88,75.99V31.88h8.27v18.65c3.56-3.86,6.69-7.26,9.81-10.66.5-.55.94-1.11,1.48-1.65,2.03-2.14,3.7-5.25,6.2-6.16,2.95-1.08,6.58-.26,10.55-.26-3.58,3.79-6.89,7.27-10.17,10.77-3.29,3.49-6.58,6.99-10.05,10.69l22.2,22.88c-3.89,0-7.2.06-10.5-.06-.59,0-1.24-.71-1.73-1.21-5.4-5.55-10.79-11.14-16.18-16.77-.36-.37-.75-.7-1.42-1.34v19.21h-8.45Z"/>
  <path class="st0" d="M486.85,65.13l5.71,5.51c-6.88,8.73-24.95,9.17-33.96.9-9.38-8.59-9.24-26.25.21-35.24,8.89-8.48,25.92-7.99,33.01.73l-5.19,5.44c-9.03-5.66-17.81-5.22-23.06,1.1-4.96,6.01-4.69,15.89.5,21.5,5.4,5.78,14.71,5.8,22.79.06Z"/>
  <path class="st0" d="M634.77,65.09l5.63,5.6c-7.24,8.78-25.26,9.1-34.17.66-9.25-8.78-8.95-26.39.6-35.24,8.96-8.29,26.04-7.71,32.73.79l-5.11,5.56c-8.7-5.66-17.65-5.29-22.93.94-5.06,5.98-4.93,15.72.27,21.48,5.36,5.93,14.57,6,22.97.2Z"/>
  <path class="st0" d="M313.39,68.47h23.4v7.7h-31.68V31.52h8.28v36.95Z"/>
  <path class="st0" d="M497.84,31.52h7.92v44.65h-7.92V31.52Z"/>
  <path class="st1" d="M94.47,44.47c-.74-2.85-1.81-5.6-3.18-8.21l-6.58,5.44-15.01,12.4,6.54,5.43,10.92-9.04c.16,1.26.24,2.53.24,3.79,0,4.25-.88,8.46-2.6,12.35l6.57,5.45c4.41-8.53,5.5-18.35,3.08-27.62h.02Z"/>
  <path class="st1" d="M56.65,65.74l-2.3-1.93-8.97-7.52-2.35-1.97-14.97-12.56-6.54-5.5c-1.39,2.64-2.47,5.42-3.22,8.31-2.45,9.37-1.38,19.31,3,27.94l6.59-5.51c-1.69-3.92-2.56-8.14-2.56-12.4,0-1.31.09-2.63.26-3.93l10.92,9.15,2.35,1.97,8.97,7.52,2.3,1.93,6.54,5.49,6.58-5.5,2.47-2.07-6.54-5.49-2.5,2.06Z"/>
  <path class="st1" d="M37.09,30.25c.77-.63,1.56-1.22,2.39-1.76,7.2-4.78,16.05-6.34,24.45-4.33,8.4,2.01,15.59,7.42,19.85,14.94l6.43-5.38c-5.84-9.44-15.37-15.98-26.27-18.02-10.9-2.04-22.15.61-31,7.29-.78.59-1.54,1.22-2.27,1.86-2.1,1.86-4.01,3.93-5.67,6.19l53.93,45.31c-10.55,10.78-27.29,12.44-39.75,3.95-.84-.57-1.64-1.18-2.42-1.82-2.96-2.47-5.44-5.47-7.31-8.84l-6.44,5.39c7.16,11.77,19.92,18.95,33.69,18.95s26.53-7.18,33.69-18.95l-6.44-5.4L37.09,30.25Z"/>
</svg>