<svg width="697" height="109" viewBox="0 0 697 109" fill="none" xmlns="http://www.w3.org/2000/svg">
<path d="M122.959 31.9188C123.12 31.8848 123.283 31.8601 123.447 31.8445C126.424 31.8445 129.832 30.9638 132.264 32.1042C134.696 33.2445 135.963 36.341 137.691 38.6402C140.696 42.6361 143.644 46.6783 146.771 50.9058C150.836 45.4081 154.883 40.2163 158.583 34.802C160.198 32.4472 161.934 31.3903 164.789 31.7518C166.683 31.8685 168.585 31.8685 170.479 31.7518V76.1694H162.282V44.7869L161.793 44.6108C161.136 45.4452 160.47 46.2703 159.822 47.114C156.066 52.0585 152.31 57.0031 148.555 61.9476C146.939 64.0615 146.273 64.0707 144.715 61.9476C140.386 56.144 136.067 50.3311 131.419 44.0824V76.1045H122.959V31.9188Z" fill="#00010F"/>
<path d="M219.328 31.5274C226.033 31.5274 232.586 31.5274 239.216 31.5274C241.242 31.4849 243.268 31.6251 245.267 31.9463C257.313 34.2358 259.813 46.1862 255.684 53.9299C254.017 57.0292 252.237 58.2204 246.214 60.5473L253.098 68.2164L260.239 76.1554C256.375 76.1554 253.07 76.2113 249.765 76.0997C249.263 76.0997 248.752 75.2898 248.306 74.8059C244.708 70.8317 241.072 66.8855 237.558 62.8369C236.675 61.6352 235.204 60.992 233.704 61.1523C231.81 61.2826 229.916 61.1523 227.842 61.1523V75.988H219.318L219.328 31.5274ZM227.756 53.6506C232.653 53.6506 237.302 53.8182 241.962 53.6506C243.91 53.6598 245.776 52.8735 247.111 51.4794C248.447 50.0854 249.133 48.2089 249.008 46.2979C248.856 42.3145 245.75 39.5038 241.432 39.4479C238.95 39.4479 236.479 39.4479 233.997 39.4479H227.804L227.756 53.6506Z" fill="#00010F"/>
<path d="M564.203 75.9153H555.919V31.5508C557.957 31.5508 560.089 31.449 562.193 31.6157C562.754 31.6619 563.316 32.4583 563.764 33.0047C570.234 41.0608 576.698 49.1262 583.156 57.201C583.521 57.6454 583.914 58.0621 584.586 58.8215V31.7175H592.879V75.6653C589.392 76.6839 588.008 76.2579 585.811 73.4707L565.887 48.2557C565.437 47.7002 564.951 47.1631 564.176 46.2278L564.203 75.9153Z" fill="#00010F"/>
<path d="M179.72 76.1694V31.52H212.702V39.4817H187.988V49.6863H211.828V57.4892H187.969V67.9086H212.719V76.1694H179.72Z" fill="#00010F"/>
<path d="M376.399 31.52V39.4389H351.578V49.7354H375.524V57.5514H351.578V67.9134H376.307V76.1694H343.4V31.52H376.399Z" fill="#00010F"/>
<path d="M546.679 31.52V39.4389H521.859V49.7354H545.804V57.5514H521.859V67.9041H546.596V76.1694H513.68V31.52H546.679Z" fill="#00010F"/>
<path d="M655.111 39.3833V49.6366H678.995V57.5373H655.129V67.9031H679.898V76.1694H647V31.52H680V39.3833H655.111Z" fill="#00010F"/>
<path d="M443.935 39.0637L436.999 42.6959C432.956 38.2051 428.042 36.8183 422.371 38.1108C421.217 38.3692 420.119 38.8392 419.133 39.4976C415.726 41.809 416.053 46.3847 419.919 47.8187C422.867 48.9131 426.123 49.1678 429.222 49.8848C431.843 50.3841 434.429 51.0587 436.962 51.9038C441.58 53.3858 444.785 57.6255 444.973 62.508C445.423 68.2346 443.625 73.0555 438.421 75.716C430.391 79.7822 422.09 79.7633 413.919 76.0084C410.427 74.3554 407.816 71.2586 406.759 67.5176C406.958 67.3248 407.175 67.1511 407.405 66.9986C409.371 65.9514 411.336 64.9232 413.396 63.8382C417.232 70.5177 423.195 71.8102 430.083 70.5932C431.322 70.359 432.513 69.9123 433.602 69.2724C437.739 66.8572 437.786 61.357 433.424 59.4324C430.372 58.0832 426.872 57.8568 423.55 56.9889C420.554 56.2058 417.401 55.6398 414.668 54.2623C407.181 50.4887 406.244 39.526 412.853 34.2333C419.46 28.9407 432.984 28.7897 439.639 34.2333C441.187 35.7339 442.623 37.3486 443.935 39.0637Z" fill="#00010F"/>
<path d="M262.88 75.9856V31.8842H271.155V50.5379C274.716 46.6741 277.843 43.2816 280.962 39.8799C281.46 39.3346 281.902 38.7707 282.437 38.2346C284.466 36.0901 286.139 32.9842 288.637 32.0783C291.587 30.9969 295.213 31.8196 299.186 31.8196C295.607 35.6094 292.301 39.0943 289.013 42.5884C285.725 46.0824 282.437 49.5765 278.961 53.274L301.159 76.152C297.27 76.152 293.964 76.2167 290.656 76.0966C290.065 76.0966 289.417 75.3848 288.929 74.8856C283.53 69.3395 278.138 63.7501 272.752 58.1176C272.395 57.7479 272 57.4152 271.334 56.7773V75.9856H262.88Z" fill="#00010F"/>
<path d="M486.849 65.1326L492.56 70.6476C485.677 79.3772 467.608 79.8204 458.597 71.5431C449.22 62.9549 449.352 45.2881 458.804 36.3039C467.693 27.8193 484.721 28.3096 491.809 37.0298L486.623 42.4693C477.595 36.8131 468.808 37.2467 463.567 43.5724C458.606 49.5871 458.878 59.4668 464.064 65.076C469.465 70.8549 478.776 70.8738 486.849 65.1326Z" fill="#00010F"/>
<path d="M634.771 65.0937L640.4 70.6929C633.156 79.4689 615.136 79.7894 606.233 71.3529C596.983 62.5769 597.283 44.959 606.834 36.1171C615.792 27.8314 632.876 28.4064 639.565 36.909L634.452 42.4705C625.756 36.8147 616.805 37.1824 611.524 43.4131C606.468 49.3894 606.59 59.1363 611.796 64.8958C617.153 70.825 626.365 70.9004 634.771 65.0937Z" fill="#00010F"/>
<path d="M313.394 68.4693H336.799V76.1694H305.119V31.52H313.394V68.4693Z" fill="#00010F"/>
<path d="M497.84 31.52H505.759V76.1694H497.84V31.52Z" fill="#00010F"/>
<path d="M94.4726 44.4656C93.7324 41.6176 92.6649 38.8624 91.2908 36.2539L84.7086 41.6986L69.697 54.0982L76.2364 59.5242L87.1591 50.4872C87.3166 51.7459 87.3975 53.0128 87.4012 54.2812C87.4059 58.5319 86.5199 62.7377 84.7988 66.6338L91.3715 72.0833C95.7784 63.5575 96.8747 53.7344 94.4536 44.4656H94.4726Z" fill="#0000FD"/>
<path d="M56.6494 65.7408L54.3464 63.8092L45.372 56.2867L43.0263 54.3173L28.0547 41.7545L21.5114 36.2539C20.1227 38.8903 19.0409 41.677 18.2872 44.5594C15.8404 53.9276 16.9061 63.8668 21.2835 72.5039L27.8695 66.9985C26.177 63.0832 25.3059 58.8624 25.3101 54.5972C25.3137 53.2833 25.3993 51.9708 25.5665 50.6675L36.4878 59.8131L38.8382 61.7827L47.8032 69.3051L50.1061 71.2366L56.6494 76.7278L63.226 71.2319L65.6951 69.1627L59.1519 63.6764L56.6494 65.7408Z" fill="#0000FD"/>
<path d="M37.0948 30.2485C37.8603 29.6177 38.6573 29.0312 39.4857 28.4888C46.6844 23.7136 55.5401 22.1446 63.9386 24.1562C72.3371 26.1677 79.5245 31.5794 83.7848 39.0991L90.2112 33.7159C84.3756 24.2781 74.84 17.7367 63.942 15.6951C53.0438 13.6535 41.7909 16.3005 32.9413 22.9872C32.1569 23.5785 31.4057 24.2029 30.6685 24.851C28.5639 26.7074 26.6631 28.7832 24.9982 31.0432L78.9272 76.3563C68.3816 87.137 51.6335 88.7993 39.1787 80.3015C38.3423 79.7339 37.5342 79.1236 36.7593 78.4802C33.7998 76.0075 31.3203 73.0104 29.4446 69.6391L23.0042 75.027C30.1605 86.7959 42.9277 93.9786 56.6904 93.9786C70.4531 93.9786 83.2203 86.7959 90.3765 75.027L83.9407 69.6248L37.0948 30.2485Z" fill="#0000FD"/>
</svg>