<?xml version="1.0" encoding="UTF-8"?>
<svg id="Layer_1" xmlns="http://www.w3.org/2000/svg" version="1.1" viewBox="0 0 722.9 159.1">
  <!-- Generator: Adobe Illustrator 29.8.1, SVG Export Plug-In . SVG Version: 2.1.1 Build 2)  -->
  <defs>
    <style>
      .st0 {
        fill: none;
      }

      .st1 {
        fill: #7d00ff;
      }

      .st2 {
        fill: #fff;
      }
    </style>
  </defs>
  <g id="MP_LOGO">
    <path class="st2" d="M662.1,120.3l-26.1-59.9h17.5l17.8,42.9,20.6-42.9h17.2l-40.6,82.5h-17.4l11-22.6ZM598.7,107.9c1.5-.4,3-.9,4.4-1.7,1.3-.7,2.6-1.6,3.7-2.6,1.1-1,2.1-2.2,2.9-3.5.8-1.4,1.5-2.9,1.9-4.4.5-1.7.7-3.4.7-5.2s-.2-3.5-.7-5.2c-.4-1.5-1.1-3-1.9-4.4-.8-1.3-1.8-2.5-2.9-3.5-1.1-1-2.4-1.9-3.7-2.6-1.4-.7-2.9-1.2-4.4-1.6-1.6-.4-3.3-.6-4.9-.5-1.6,0-3.3.2-4.9.5-1.5.3-3,.9-4.4,1.6s-2.6,1.6-3.7,2.6c-1.1,1-2.1,2.2-2.9,3.5-.8,1.4-1.5,2.9-1.9,4.4-.5,1.7-.7,3.5-.7,5.2s.2,3.5.7,5.2c.4,1.5,1.1,3,1.9,4.4.8,1.3,1.8,2.5,2.9,3.5,1.1,1,2.4,1.9,3.7,2.6,1.4.7,2.8,1.3,4.4,1.7,1.6.4,3.2.6,4.9.5,1.6.1,3.2-.1,4.9-.5M581,121.3c-2.7-.7-5.3-1.7-7.7-3.1-4.7-2.6-8.6-6.5-11.2-11.2-1.4-2.4-2.4-5-3.1-7.7-1.4-5.8-1.4-11.8,0-17.6.7-2.7,1.7-5.3,3.1-7.7,2.6-4.7,6.5-8.5,11.2-11.2,2.4-1.3,5-2.4,7.7-3.1,2.9-.7,5.8-1.1,8.8-1.1,1.6,0,3.2.1,4.8.3,1.5.2,2.9.5,4.3.9,1.3.4,2.6.8,3.8,1.4,1.2.5,2.3,1.1,3.4,1.8,1,.6,2,1.4,2.8,2.2s1.6,1.6,2.2,2.5v-7.2h16.6v60.2h-16.6v-7.2c-2.2,2.8-5.1,5-8.4,6.5-1.9.9-3.9,1.5-6,1.8-2.3.4-4.7.7-7,.6-2.9,0-5.8-.3-8.7-1.1M520.8,75.7c2.4,0,4.8-.2,7.1-.8,1.8-.5,3.5-1.3,4.9-2.5,1.3-1.1,2.3-2.5,2.9-4.1.6-1.8,1-3.7.9-5.6,0-1.9-.3-3.8-.9-5.6-.6-1.6-1.6-2.9-2.9-4-1.4-1.1-3.1-2-4.9-2.4-2.3-.6-4.7-.9-7.1-.8h-16.3v25.8h16.3ZM487.3,35.7h35.2c4.9-.1,9.7.6,14.3,2,3.7,1.1,7.1,3.1,10,5.6,2.6,2.4,4.6,5.3,5.9,8.6,1.3,3.5,2,7.2,1.9,10.9,0,3.7-.6,7.4-1.9,10.8-1.3,3.3-3.3,6.2-5.9,8.6-2.9,2.6-6.3,4.5-10,5.6-4.6,1.4-9.5,2.1-14.3,2h-17.9v30.9h-17.2l-.1-85ZM413.6,60.4h16.5v7.2c1-1.4,2.2-2.7,3.6-3.7,1.4-1.1,3-2.1,4.7-2.8,1.8-.8,3.8-1.4,5.8-1.8,2.2-.4,4.4-.6,6.7-.6,3.5-.1,7,.5,10.2,1.7,2.9,1.1,5.6,2.8,7.8,5,2.2,2.3,3.8,5.1,4.8,8.1,1.2,3.5,1.7,7.1,1.7,10.8v36.4h-16.5v-32.1c0-2.3-.3-4.7-1-6.9-.6-1.8-1.5-3.5-2.8-5-1.2-1.3-2.8-2.4-4.5-3-3.9-1.3-8.2-1.3-12.2,0-1.7.6-3.3,1.7-4.5,3-1.3,1.5-2.2,3.2-2.8,5-.7,2.2-1,4.6-1,6.9v32.1h-16.4l-.1-60.3ZM373,107.7c1.6-.4,3.1-.9,4.5-1.7,1.4-.7,2.6-1.6,3.7-2.7s2-2.3,2.8-3.6c.8-1.4,1.4-2.8,1.7-4.3.8-3.3.8-6.7,0-10-.7-3-2.3-5.8-4.5-7.9-1.1-1.1-2.4-2-3.7-2.7-1.4-.8-3-1.3-4.5-1.7-1.7-.4-3.5-.6-5.2-.6s-3.5.2-5.2.6c-1.6.4-3.1.9-4.5,1.7-1.4.7-2.6,1.6-3.7,2.7s-2,2.3-2.8,3.6c-2.4,4.4-3,9.5-1.7,14.4.4,1.5,1,3,1.7,4.3s1.7,2.5,2.8,3.6c1.1,1.1,2.3,2,3.7,2.7,1.4.7,2.9,1.3,4.5,1.7,1.7.4,3.4.6,5.2.6,1.8,0,3.5-.2,5.2-.7M358.1,121.3c-3-.7-5.9-1.7-8.6-3.1-2.6-1.3-4.9-2.9-7.1-4.8-2.1-1.9-3.9-4-5.3-6.4-1.5-2.4-2.6-5-3.4-7.7-1.6-5.8-1.6-11.9,0-17.6.8-2.7,1.9-5.3,3.4-7.7,3-4.8,7.3-8.7,12.4-11.2,2.7-1.4,5.6-2.4,8.6-3.1,6.4-1.5,13.1-1.5,19.5,0,3,.7,5.8,1.7,8.5,3.1,2.6,1.3,4.9,2.9,7.1,4.9,2.1,1.9,3.9,4,5.4,6.4s2.7,5,3.4,7.7c1.6,5.8,1.6,11.9,0,17.6-1.5,5.5-4.6,10.4-8.8,14.1-2.1,1.9-4.5,3.5-7.1,4.8-2.7,1.4-5.6,2.4-8.5,3.1-6.4,1.4-13.1,1.4-19.5-.1M293.9,107.7c1.6-.4,3.1-.9,4.5-1.7,1.4-.7,2.6-1.6,3.7-2.7s2-2.3,2.8-3.6c.8-1.4,1.4-2.8,1.7-4.3.8-3.3.8-6.7,0-10-.7-3-2.3-5.8-4.5-7.9-1.1-1.1-2.4-2-3.7-2.7-1.4-.8-3-1.3-4.5-1.7-1.7-.4-3.5-.6-5.2-.6s-3.5.2-5.2.6c-1.6.4-3.1.9-4.5,1.7-1.3.7-2.6,1.6-3.7,2.7-1.1,1-2,2.3-2.8,3.6-.7,1.4-1.3,2.8-1.7,4.3-.4,1.6-.7,3.3-.6,5,0,1.7.2,3.4.6,5,.4,1.5,1,3,1.7,4.3s1.7,2.5,2.8,3.6c1.1,1.1,2.3,2,3.7,2.7,1.4.7,2.9,1.3,4.5,1.7,1.7.4,3.4.6,5.2.6,1.7,0,3.5-.2,5.2-.6M278.9,121.3c-3-.7-5.9-1.7-8.6-3.1-2.6-1.3-4.9-2.9-7.1-4.8-2.1-1.9-3.9-4-5.3-6.4-1.5-2.4-2.6-5-3.4-7.7-1.6-5.8-1.6-11.9,0-17.6.8-2.7,1.9-5.3,3.4-7.7,1.5-2.4,3.3-4.5,5.3-6.4,2.1-1.9,4.5-3.6,7.1-4.9,2.7-1.4,5.6-2.4,8.6-3.1,6.4-1.4,13.1-1.4,19.5,0,3,.7,5.8,1.7,8.5,3.1,2.6,1.3,4.9,2.9,7.1,4.9,2.1,1.9,3.9,4,5.4,6.4s2.7,5,3.4,7.7c1.6,5.8,1.6,11.9,0,17.6-1.5,5.5-4.6,10.4-8.8,14.1-2.1,1.9-4.5,3.5-7.1,4.8-2.7,1.4-5.6,2.4-8.5,3.1-6.3,1.5-13,1.5-19.5,0M148.9,35.7h17.4l29.6,45.3,29.8-45.3h17.3v85h-17.2v-58.3l-24.6,37.6h-10.5l-24.6-37.6v58.3h-17.2V35.7Z"/>
  </g>
  <path id="MP_EM_LOGO" class="st1" d="M109.3,50.9c9.6,0,17.3-7.8,17.3-17.3s-7.8-17.3-17.3-17.3-17.3,7.8-17.3,17.3h0c0,9.5,7.7,17.3,17.3,17.3h0M56.1,129c-23.4,0-42.3-18.9-42.3-42.3s18.9-42.3,42.3-42.3,42.3,18.9,42.3,42.3h0c0,23.4-18.9,42.3-42.3,42.3h0"/>
  <rect class="st0" width="722.9" height="159.1"/>
</svg>